<svg xmlns="http://www.w3.org/2000/svg" xmlns:xlink="http://www.w3.org/1999/xlink" xmlns:sketch="http://www.bohemiancoding.com/sketch/ns" viewBox="0 0 30 37.5" version="1.1" x="0px" y="0px"><title>furniture_010-refrigerator-fridge-food-kitchen-cool-interior</title><desc>Created with Sketch.</desc><g stroke="none" stroke-width="1" fill="none" fill-rule="evenodd" sketch:type="MSPage"><g sketch:type="MSArtboardGroup" transform="translate(-450.000000, -45.000000)" fill="#000000"><path d="M458,56 L458,69.9964051 C458,71.1082726 458.894889,71.9968612 460,71.9999925 L460,72.4953156 C460,72.785965 460.223858,73 460.5,73 C460.768066,73 461,72.7740451 461,72.4953156 L461,72 L469,72 L469,72.4953156 C469,72.785965 469.223858,73 469.5,73 C469.768066,73 470,72.7740451 470,72.4953156 L470,71.9999917 C471.106098,71.9968384 472,71.1010104 472,69.9964051 L472,56 L458,56 Z M458,55 L458,49.0035949 C458,47.89704 458.89706,47 460.005859,47 L469.994141,47 C471.101946,47 472,47.8897632 472,49.0035949 L472,55 L458,55 Z M469.5,57 C469.776142,57 470,57.2157526 470,57.495389 L470,59.504611 C470,59.7782068 469.768066,60 469.5,60 C469.223858,60 469,59.7842474 469,59.504611 L469,57.495389 C469,57.2217932 469.231934,57 469.5,57 Z M469.5,52 C469.776142,52 470,52.214035 470,52.5046844 L470,53.4953156 C470,53.7740451 469.768066,54 469.5,54 C469.223858,54 469,53.785965 469,53.4953156 L469,52.5046844 C469,52.2259549 469.231934,52 469.5,52 Z" sketch:type="MSShapeGroup"/></g></g></svg>