<svg xmlns="http://www.w3.org/2000/svg" xmlns:xlink="http://www.w3.org/1999/xlink" version="1.1" x="0px" y="0px" viewBox="0 0 64 80" enable-background="new 0 0 64 64" xml:space="preserve"><path fill="#000000" d="M20.832,8.432c-3.371,0-6.741,1.287-9.311,3.857c-2.571,2.57-3.857,5.94-3.857,9.311  c0,3.371,1.287,6.742,3.857,9.312c2.57,2.571,5.94,3.856,9.311,3.856c3.371,0,6.742-1.285,9.312-3.856s3.854-5.941,3.854-9.312  c0-3.371-1.284-6.741-3.854-9.311C27.574,9.718,24.203,8.432,20.832,8.432 M13.24,14.198c0.532-0.532,1.395-0.532,1.927,0  c0.531,0.531,0.531,1.393,0,1.924c-1.513,1.512-2.269,3.496-2.269,5.478c0,1.982,0.756,3.964,2.269,5.478  c0.531,0.532,0.531,1.394,0,1.926c-0.532,0.532-1.395,0.532-1.927,0c-2.042-2.044-3.065-4.724-3.065-7.403  C10.175,18.921,11.198,16.241,13.24,14.198z M9.596,10.362c3.102-3.102,7.17-4.652,11.236-4.652c4.068,0,8.135,1.551,11.237,4.652  c3.103,3.103,4.655,7.17,4.655,11.238c0,3.643-1.245,7.284-3.733,10.233l5.357,5.358c1.327-0.706,3.011-0.499,4.127,0.617  l14.498,14.496c1.368,1.368,1.371,3.589,0,4.96c-1.371,1.368-3.592,1.368-4.96,0L37.515,42.771  c-0.936-0.935-1.232-2.267-0.891-3.454l-5.559-5.558c-2.949,2.488-6.59,3.733-10.233,3.733c-4.066,0-8.135-1.553-11.236-4.655  C6.493,29.735,4.942,25.668,4.942,21.6C4.942,17.533,6.493,13.465,9.596,10.362z"/></svg>